<svg width="383" height="290" viewBox="0 0 383 290" fill="none" xmlns="http://www.w3.org/2000/svg">
<g clip-path="url(#clip0_306_4)">
<path d="M2.83652 75.0711C-4.10979 100.328 1.61628 129.744 20.9601 147.607C36.3086 161.78 58.0355 167.288 79.0141 168.198C99.9927 169.108 120.922 165.958 141.91 165.309C156.267 164.865 172.946 166.807 180.736 178.742C186.742 187.944 185.24 199.868 187.173 210.652C191.778 236.339 217.334 254.921 243.57 257.623C269.806 260.324 295.897 249.815 317.532 234.89C350.544 212.116 376.334 177.091 381.268 137.584C386.203 98.0769 367.224 54.9671 331.326 36.9645C308.65 25.5924 282.066 24.8079 256.733 26.9502C231.4 29.0925 206.173 33.9184 180.77 32.8764C158.191 31.9502 134.448 25.7719 117.382 10.4209C101.128 -4.19885 73.6687 -1.98816 55.2972 8.14031C49.381 11.402 44.2357 16.7423 39.096 21.1518C33.4136 26.0033 28.1486 31.3133 23.3552 37.027C14.0391 48.1885 6.69041 61.0584 2.83652 75.0711Z" fill="#3F3D56"/>
<path d="M263.953 113.003C240.177 113.003 216.199 104.788 197.604 90.1673C196.452 89.2616 195.285 88.3087 194.155 87.3872C188.091 82.4391 181.821 77.3227 174.176 76.2083C165.924 75.0055 157.997 78.7221 150.332 82.3165C147.733 83.5352 145.045 84.7956 142.384 85.8459C130.732 90.4581 117.946 91.4888 105.693 88.8034C93.4406 86.118 82.2913 79.8413 73.7009 70.7927C72.7368 69.783 72.1425 68.4828 72.0131 67.0998C71.8836 65.7169 72.2265 64.3309 72.9868 63.1632C73.7471 61.9956 74.8811 61.1135 76.2077 60.658C77.5343 60.2024 78.9769 60.1996 80.3053 60.6499C80.4092 60.6854 80.4945 60.7601 80.5427 60.8577C80.5909 60.9553 80.598 61.0679 80.5624 61.1706C80.5267 61.2734 80.4514 61.358 80.3528 61.4058C80.2542 61.4537 80.1404 61.4609 80.0364 61.4258C78.8835 61.0349 77.6314 61.0373 76.48 61.4326C75.3286 61.828 74.3443 62.5935 73.6843 63.6069C73.0244 64.6203 72.7267 65.8232 72.839 67.0235C72.9512 68.2238 73.4668 69.3523 74.3035 70.2288C82.7796 79.1582 93.7811 85.3523 105.872 88.0025C117.962 90.6526 130.579 89.6355 142.076 85.084C144.714 84.0431 147.389 82.7885 149.977 81.5752C157.754 77.9285 165.796 74.1577 174.297 75.3968C182.171 76.5444 188.532 81.7349 194.683 86.7543C195.809 87.6736 196.974 88.6241 198.12 89.5252C217.59 104.834 243.014 113.062 267.863 112.107C292.717 111.15 317.413 100.989 335.619 84.229C335.7 84.1549 335.807 84.1154 335.917 84.1193C336.027 84.1232 336.13 84.1702 336.205 84.2498C336.28 84.3294 336.32 84.4352 336.316 84.5439C336.312 84.6526 336.265 84.7553 336.184 84.8294C317.835 101.721 292.945 111.962 267.896 112.927C266.584 112.977 265.267 113.003 263.953 113.003Z" fill="#6C63FF"/>
<path d="M98.366 57.6465C98.5686 56.8558 97.8011 55.9812 96.6518 55.6931C95.5024 55.405 94.4064 55.8125 94.2038 56.6033C94.0012 57.3941 94.7686 58.2687 95.918 58.5568C97.0674 58.8448 98.1634 58.4373 98.366 57.6465Z" fill="white"/>
<path d="M84.3303 57.5569C84.533 56.7662 83.7655 55.8916 82.6161 55.6035C81.4668 55.3154 80.3708 55.7229 80.1682 56.5137C79.9655 57.3045 80.733 58.1791 81.8824 58.4672C83.0317 58.7552 84.1277 58.3477 84.3303 57.5569Z" fill="#3F3D56"/>
<path d="M101 69.1636C101.202 68.3729 100.435 67.4983 99.2856 67.2102C98.1362 66.9221 97.0402 67.3296 96.8376 68.1204C96.635 68.9112 97.4024 69.7858 98.5518 70.0739C99.7012 70.3619 100.797 69.9544 101 69.1636Z" fill="#FF6584"/>
<path d="M104.272 73.5063C104.355 72.7697 104.003 72.1262 103.485 72.069C102.966 72.0117 102.479 72.5624 102.396 73.2989C102.313 74.0355 102.665 74.679 103.183 74.7362C103.701 74.7935 104.189 74.2428 104.272 73.5063Z" fill="#E6E6E6"/>
<path d="M105.426 82.2052C105.509 81.4687 105.157 80.8252 104.639 80.7679C104.121 80.7107 103.633 81.2614 103.55 81.9979C103.467 82.7345 103.819 83.378 104.337 83.4352C104.856 83.4925 105.343 82.9418 105.426 82.2052Z" fill="#3F3D56"/>
<path d="M91.0766 65.6276C91.1598 64.891 90.8073 64.2476 90.2892 64.1903C89.7711 64.133 89.2837 64.6837 89.2005 65.4203C89.1173 66.1568 89.4698 66.8003 89.9879 66.8576C90.5059 66.9148 90.9934 66.3641 91.0766 65.6276Z" fill="#E6E6E6"/>
<path d="M98.14 63.0033C98.2233 62.2668 97.8707 61.6233 97.3527 61.566C96.8346 61.5088 96.3472 62.0595 96.264 62.796C96.1807 63.5326 96.5333 64.1761 97.0513 64.2333C97.5694 64.2906 98.0568 63.7399 98.14 63.0033Z" fill="#FF6584"/>
<path d="M89.4389 55.9123C89.5221 55.1757 89.1696 54.5322 88.6515 54.475C88.1334 54.4177 87.646 54.9684 87.5628 55.7049C87.4796 56.4415 87.8321 57.085 88.3502 57.1422C88.8682 57.1995 89.3557 56.6488 89.4389 55.9123Z" fill="#3F3D56"/>
<path d="M310.292 151.576C310.494 150.786 309.727 149.911 308.578 149.623C307.428 149.335 306.332 149.742 306.13 150.533C305.927 151.324 306.694 152.199 307.844 152.487C308.993 152.775 310.089 152.367 310.292 151.576Z" fill="white"/>
<path d="M296.256 151.487C296.459 150.696 295.691 149.822 294.542 149.534C293.393 149.246 292.297 149.653 292.094 150.444C291.891 151.235 292.659 152.109 293.808 152.397C294.958 152.685 296.054 152.278 296.256 151.487Z" fill="#3F3D56"/>
<path d="M312.926 163.094C313.129 162.303 312.361 161.428 311.212 161.14C310.062 160.852 308.966 161.26 308.764 162.05C308.561 162.841 309.329 163.716 310.478 164.004C311.627 164.292 312.723 163.884 312.926 163.094Z" fill="#FF6584"/>
<path d="M316.198 167.436C316.281 166.7 315.928 166.056 315.41 165.999C314.892 165.942 314.405 166.493 314.322 167.229C314.238 167.966 314.591 168.609 315.109 168.666C315.627 168.724 316.114 168.173 316.198 167.436Z" fill="#E6E6E6"/>
<path d="M317.352 176.135C317.435 175.399 317.083 174.755 316.565 174.698C316.047 174.641 315.559 175.192 315.476 175.928C315.393 176.665 315.745 177.308 316.263 177.365C316.781 177.423 317.269 176.872 317.352 176.135Z" fill="#3F3D56"/>
<path d="M303.002 159.558C303.086 158.821 302.733 158.178 302.215 158.12C301.697 158.063 301.209 158.614 301.126 159.35C301.043 160.087 301.396 160.73 301.914 160.788C302.432 160.845 302.919 160.294 303.002 159.558Z" fill="#E6E6E6"/>
<path d="M310.066 156.933C310.149 156.197 309.796 155.553 309.278 155.496C308.76 155.439 308.273 155.989 308.19 156.726C308.107 157.462 308.459 158.106 308.977 158.163C309.495 158.22 309.983 157.67 310.066 156.933Z" fill="#FF6584"/>
<path d="M301.364 149.843C301.447 149.106 301.094 148.463 300.576 148.405C300.058 148.348 299.571 148.899 299.488 149.635C299.404 150.372 299.757 151.015 300.275 151.073C300.793 151.13 301.281 150.579 301.364 149.843Z" fill="#3F3D56"/>
<path d="M61.6262 118.857C62.5424 118.857 63.2851 118.122 63.2851 117.216C63.2851 116.31 62.5424 115.575 61.6262 115.575C60.71 115.575 59.9673 116.31 59.9673 117.216C59.9673 118.122 60.71 118.857 61.6262 118.857Z" fill="white"/>
<path d="M15.1765 93.4259C16.0927 93.4259 16.8354 92.6914 16.8354 91.7852C16.8354 90.8791 16.0927 90.1445 15.1765 90.1445C14.2603 90.1445 13.5176 90.8791 13.5176 91.7852C13.5176 92.6914 14.2603 93.4259 15.1765 93.4259Z" fill="white"/>
<path d="M61.6262 86.8629C62.5424 86.8629 63.2851 86.1284 63.2851 85.2222C63.2851 84.3161 62.5424 83.5815 61.6262 83.5815C60.71 83.5815 59.9673 84.3161 59.9673 85.2222C59.9673 86.1284 60.71 86.8629 61.6262 86.8629Z" fill="white"/>
<path d="M166.552 113.114C167.469 113.114 168.211 112.38 168.211 111.473C168.211 110.567 167.469 109.833 166.552 109.833C165.636 109.833 164.894 110.567 164.894 111.473C164.894 112.38 165.636 113.114 166.552 113.114Z" fill="white"/>
<path d="M36.7425 56.0999C37.2006 56.0999 37.572 55.7326 37.572 55.2796C37.572 54.8265 37.2006 54.4592 36.7425 54.4592C36.2844 54.4592 35.9131 54.8265 35.9131 55.2796C35.9131 55.7326 36.2844 56.0999 36.7425 56.0999Z" fill="white"/>
<path d="M125.909 128.701C126.367 128.701 126.739 128.333 126.739 127.88C126.739 127.427 126.367 127.06 125.909 127.06C125.451 127.06 125.08 127.427 125.08 127.88C125.08 128.333 125.451 128.701 125.909 128.701Z" fill="white"/>
<path d="M290.556 189.817C291.014 189.817 291.385 189.45 291.385 188.997C291.385 188.544 291.014 188.176 290.556 188.176C290.098 188.176 289.727 188.544 289.727 188.997C289.727 189.45 290.098 189.817 290.556 189.817Z" fill="white"/>
<path d="M183.557 152.081C184.015 152.081 184.386 151.714 184.386 151.261C184.386 150.807 184.015 150.44 183.557 150.44C183.098 150.44 182.727 150.807 182.727 151.261C182.727 151.714 183.098 152.081 183.557 152.081Z" fill="white"/>
<path d="M198.487 66.3543C198.945 66.3543 199.316 65.987 199.316 65.534C199.316 65.0809 198.945 64.7136 198.487 64.7136C198.029 64.7136 197.657 65.0809 197.657 65.534C197.657 65.987 198.029 66.3543 198.487 66.3543Z" fill="white"/>
<path d="M334.102 97.9378C334.56 97.9378 334.932 97.5705 334.932 97.1175C334.932 96.6644 334.56 96.2971 334.102 96.2971C333.644 96.2971 333.273 96.6644 333.273 97.1175C333.273 97.5705 333.644 97.9378 334.102 97.9378Z" fill="white"/>
<path d="M141.254 55.2796C141.712 55.2796 142.084 54.9123 142.084 54.4593C142.084 54.0062 141.712 53.6389 141.254 53.6389C140.796 53.6389 140.425 54.0062 140.425 54.4593C140.425 54.9123 140.796 55.2796 141.254 55.2796Z" fill="white"/>
<path d="M292.215 51.1779C293.131 51.1779 293.874 50.4433 293.874 49.5372C293.874 48.6311 293.131 47.8965 292.215 47.8965C291.299 47.8965 290.556 48.6311 290.556 49.5372C290.556 50.4433 291.299 51.1779 292.215 51.1779Z" fill="white"/>
<path d="M82.3625 24.9267C83.2787 24.9267 84.0214 24.1921 84.0214 23.286C84.0214 22.3798 83.2787 21.6453 82.3625 21.6453C81.4463 21.6453 80.7036 22.3798 80.7036 23.286C80.7036 24.1921 81.4463 24.9267 82.3625 24.9267Z" fill="white"/>
<path d="M282.676 289.079H281.847C281.847 280.578 246.341 268.336 215.015 257.536C183.936 246.821 164.929 240.013 165.744 235.254C166.096 233.196 169.57 230.834 193.51 230.834C239.621 230.834 282.977 234.614 315.591 241.476C348.389 248.376 366.451 257.635 366.451 267.545H365.622C365.622 262.812 361.137 258.181 352.292 253.782C343.634 249.475 331.228 245.604 315.418 242.278C282.86 235.427 239.565 231.655 193.51 231.655C171.766 231.655 166.853 233.687 166.562 235.391C165.823 239.707 190.969 248.377 215.288 256.762C248.418 268.184 282.676 279.995 282.676 289.079Z" fill="#E6E6E6"/>
<path d="M353.595 265.569H352.765C352.765 262.066 338.296 258.316 316.757 258.316C295.218 258.316 280.748 262.066 280.748 265.569H279.919C279.919 260.515 298.649 257.496 316.757 257.496C334.865 257.496 353.595 260.515 353.595 265.569Z" fill="#E6E6E6"/>
<path d="M339.122 267.955H338.293C338.293 265.977 329.498 263.772 316.877 263.772C304.257 263.772 295.462 265.977 295.462 267.955H294.633C294.633 264.705 306.094 262.952 316.877 262.952C327.661 262.952 339.122 264.705 339.122 267.955Z" fill="#E6E6E6"/>
<path d="M250.327 86.8631C259.489 86.8631 266.917 79.5174 266.917 70.4561C266.917 61.3947 259.489 54.0491 250.327 54.0491C241.165 54.0491 233.738 61.3947 233.738 70.4561C233.738 79.5174 241.165 86.8631 250.327 86.8631Z" fill="#F2F2F2"/>
<path d="M247.839 88.0935C257.001 88.0935 264.428 80.7479 264.428 71.6865C264.428 62.6252 257.001 55.2795 247.839 55.2795C238.677 55.2795 231.25 62.6252 231.25 71.6865C231.25 80.7479 238.677 88.0935 247.839 88.0935Z" fill="#F2F2F2"/>
<path d="M265.049 245.808L260.943 245.807L258.989 230.143L265.05 230.143L265.049 245.808Z" fill="#F2F2F2"/>
<path d="M266.087 251.321L250.538 251.32V251.126C250.538 249.538 251.175 248.016 252.31 246.893C253.445 245.771 254.985 245.14 256.59 245.14H256.59L259.43 243.009L264.73 245.14L266.087 245.14L266.087 251.321Z" fill="#F2F2F2"/>
<path d="M255.955 239.754L252.447 241.864L242.547 229.485L247.725 226.37L255.955 239.754Z" fill="#F2F2F2"/>
<path d="M258.848 243.015L245.564 251.006L245.461 250.84C244.627 249.484 244.372 247.855 244.752 246.313C245.132 244.771 246.116 243.441 247.487 242.616L247.487 242.615L248.794 239.335L254.441 238.432L255.601 237.735L258.848 243.015Z" fill="#F2F2F2"/>
<path d="M267.982 199.444C267.912 199.936 267.808 201.609 267.688 204.046C267.103 215.859 266.087 245.601 266.087 245.601L259.754 243.652C259.754 243.652 252.223 221.183 253.467 208.878L252.571 204.595L251.036 197.278V197.274L246.362 174.989C246.362 174.989 245.338 181.027 245.255 182.442C245.172 183.857 244.343 184.267 243.928 184.267C241.85 184.267 242.489 183.902 242.792 185.933C243.011 187.393 241.212 195.764 240.183 200.342C239.785 202.122 239.503 203.328 239.503 203.328L241.261 207.077L255.839 238.168L250.327 241.089L228.338 208.857L226.169 205.678L225.705 202.114L222.047 174.07C222.047 174.07 220.906 170.9 222.047 170.818C223.192 170.731 223.839 171.088 223.515 169.886C223.192 168.681 229.827 148.582 229.827 148.582L264.25 155.965C264.25 155.965 267.642 162.635 266.323 165.809C265 168.984 267.406 193.57 266.033 194.661C264.664 195.752 263.781 194.878 265.672 196.753C265.961 197.052 266.303 197.296 266.68 197.475C267.849 198 268.314 197.147 267.982 199.444Z" fill="#F2F2F2"/>
<path d="M247.731 81.9084C253.012 81.9084 257.293 77.6744 257.293 72.4515C257.293 67.2286 253.012 62.9946 247.731 62.9946C242.45 62.9946 238.169 67.2286 238.169 72.4515C238.169 77.6744 242.45 81.9084 247.731 81.9084Z" fill="#A0616A"/>
<path d="M255.183 80.596L251.392 81.3138C251.392 81.3138 254.917 75.6862 254.71 73.1103C254.502 70.5344 251.666 69.6115 251.666 69.6115C251.666 69.6115 250.094 69.9478 248.439 70.1365C248.241 69.5846 247.984 69.0552 247.672 68.5573C247.61 69.2001 247.323 69.8011 246.859 70.2555C246.253 70.307 245.642 70.2372 245.063 70.0504C244.408 69.755 244.42 69.2423 244.636 68.7624C242.5 68.9367 240.416 69.5029 238.49 70.4318C238.394 69.1726 238.443 67.9067 238.635 66.6582C238.726 66.6336 238.817 66.6049 238.909 66.5762C239.474 66.3993 240.019 66.1642 240.534 65.8748C239.961 65.7995 239.424 65.5501 239 65.1611C239.348 64.152 239.904 63.2784 240.779 62.8518C241.623 62.4434 242.546 62.2193 243.486 62.1945C244.425 62.1697 245.359 62.3449 246.224 62.7082C246.224 62.7082 244.196 61.2439 244.943 60.645C244.993 60.6943 245.042 60.7394 245.096 60.7845C245.167 60.8419 245.246 60.9035 245.32 60.9609C245.781 61.33 246.469 60.8091 246.56 60.2513C246.57 60.1808 246.584 60.111 246.602 60.0421C246.614 59.9847 246.631 59.9273 246.647 59.8739C246.662 59.8266 246.678 59.78 246.697 59.7345C248.078 59.4063 252.255 60.7394 253.86 63.6762C253.86 63.6762 265.078 69.0085 255.183 80.596Z" fill="#3F3D56"/>
<path d="M251.719 164.911C251.581 163.967 251.821 163.006 252.388 162.234C252.955 161.461 253.804 160.938 254.755 160.775C254.949 160.745 255.145 160.731 255.341 160.733L265.339 137.771L272.197 142.864L258.844 164.617C258.773 165.421 258.434 166.179 257.882 166.773C257.329 167.367 256.593 167.763 255.789 167.899C254.863 168.048 253.916 167.826 253.155 167.284C252.395 166.741 251.883 165.922 251.733 165.006C251.728 164.975 251.723 164.943 251.719 164.911Z" fill="#6C63FF"/>
<path d="M223.712 166.783C224.385 166.099 224.761 165.182 224.76 164.227C224.76 163.273 224.383 162.356 223.71 161.672C223.571 161.535 223.42 161.41 223.26 161.298L228.799 136.904L220.224 137.044L218.119 162.407C217.7 163.1 217.523 163.91 217.618 164.711C217.713 165.513 218.074 166.261 218.643 166.838C218.971 167.164 219.36 167.423 219.789 167.6C220.217 167.776 220.677 167.868 221.141 167.869C221.605 167.871 222.065 167.781 222.495 167.607C222.924 167.432 223.315 167.176 223.644 166.852C223.667 166.829 223.69 166.806 223.712 166.783Z" fill="#6C63FF"/>
<path d="M278.972 125.949C277.728 127.589 276.069 125.74 277.728 128.102C278.869 129.726 272.333 144.952 268.148 154.279C266.257 158.5 264.843 161.515 264.843 161.515L257.788 157.475L256.963 157.003C256.963 157.003 263.433 140.9 265.515 135.112C265.859 134.152 266.087 133.475 266.141 133.205C266.531 131.281 266.58 129.632 266.141 129.021C266.037 128.793 265.948 128.559 265.875 128.32C265.042 125.904 262.504 117.745 260.127 110.03C259.435 107.766 258.75 105.542 258.128 103.512C256.532 98.2988 255.333 94.3652 255.333 94.3652L264.872 94.7754C264.872 94.7754 265.029 95.0379 265.307 95.5137C265.971 96.6458 267.331 98.9797 268.907 101.785C270.043 103.803 271.296 106.072 272.478 108.303C275.489 113.98 278.081 119.447 277.314 120.206C275.655 121.847 273.958 120.916 276.049 123.02C278.143 125.128 280.217 124.308 278.972 125.949Z" fill="#F2F2F2"/>
<path d="M267.566 147.762C265.078 145.326 265.538 134.222 265.538 134.222C265.538 134.222 268.014 96.9372 264.663 94.4393C262.346 92.7853 259.881 91.345 257.298 90.1365C257.148 90.0709 257.07 90.034 257.07 90.034L254.93 84.066L241.745 83.3892L239.444 87.8108C239.444 87.8108 239.083 87.8355 238.519 87.9134C236.412 88.2005 231.46 89.2177 231.9 92.3884C232.456 96.4081 228.532 121.097 227.338 122.331C226.143 123.566 226.459 128.078 229.411 130.945C232.364 133.812 230.241 141.609 228.167 144.891C226.923 146.899 226.348 149.244 226.525 151.593C226.525 151.593 228.167 160.477 232.315 157.606C233.895 156.511 236.138 156.372 238.838 156.573C238.865 156.574 238.893 156.578 238.92 156.58L238.838 156.983C242.587 157.258 247.22 158.189 252.176 158.135L252.029 157.723C252.078 157.723 252.127 157.726 252.176 157.725C253.014 157.717 253.856 157.68 254.71 157.606C262.1 156.97 265.364 158.98 266.322 156.786C267.28 154.591 270.055 150.198 267.566 147.762Z" fill="#F2F2F2"/>
<path opacity="0.3" d="M247.839 83.9918C254.711 83.9918 260.281 78.4826 260.281 71.6866C260.281 64.8906 254.711 59.3813 247.839 59.3813C240.968 59.3813 235.397 64.8906 235.397 71.6866C235.397 78.4826 240.968 83.9918 247.839 83.9918Z" fill="#6C63FF"/>
<path d="M241.855 90.2634C241.855 90.2634 239.963 96.4735 237.761 103.639C237.069 105.895 236.343 108.245 235.638 110.53C233.336 117.958 231.238 124.653 231.043 124.919C230.603 125.53 230.657 127.179 231.043 129.103C231.121 129.488 230.943 130.99 230.607 133.143C230.168 135.969 229.458 139.915 228.704 143.943C228.102 147.163 227.472 150.432 226.929 153.217C226.078 157.54 225.444 160.695 225.444 160.695H217.564C217.564 160.695 219.045 128 220.703 125.641C222.362 123.278 220.703 125.128 219.459 123.488C218.215 121.847 220.289 122.667 222.379 120.559C224.469 118.455 222.777 119.386 221.118 117.745C220.504 117.138 221.877 113.27 223.851 108.639C224.772 106.49 225.821 104.173 226.858 101.941C229.002 97.3349 231.105 93.0978 231.938 91.4243C231.938 91.4202 231.943 91.4161 231.943 91.412L232.316 90.6737L241.855 90.2634Z" fill="#F2F2F2"/>
<path d="M259.037 91.7852C250.377 95.1117 242.592 95.6851 236.227 91.7852V84.4021C243.724 88.851 251.33 88.7294 259.037 84.4021V91.7852Z" fill="#3F3D56"/>
<path d="M265.672 138.955C252.29 142.282 240.258 142.855 230.42 138.955V131.572C242.007 136.021 253.762 135.899 265.672 131.572V138.955Z" fill="#3F3D56"/>
<path d="M267.982 199.444C267.912 199.936 267.808 201.61 267.688 204.046C262.691 204.847 257.614 205.031 252.571 204.596L251.037 197.278C256.203 198.211 261.491 198.278 266.68 197.475C267.85 198 268.314 197.147 267.982 199.444Z" fill="#3F3D56"/>
<path d="M241.262 207.077C237.009 208.013 232.688 208.608 228.339 208.857L226.17 205.678L225.705 202.114C230.593 202.239 235.473 201.641 240.183 200.342C239.785 202.122 239.503 203.328 239.503 203.328L241.262 207.077Z" fill="#3F3D56"/>
<path d="M242.448 107.372C242.448 108.46 242.011 109.503 241.233 110.272C240.455 111.041 239.401 111.473 238.301 111.473C237.201 111.473 236.146 111.041 235.368 110.272C234.59 109.503 234.153 108.46 234.153 107.372C234.153 105.106 237.886 100.399 238.301 103.27C238.715 106.141 242.448 105.106 242.448 107.372Z" fill="#6C63FF"/>
<path d="M238.3 114.345C236.906 114.345 235.543 113.936 234.383 113.17C233.224 112.403 232.32 111.314 231.787 110.04C231.253 108.766 231.113 107.364 231.385 106.012C231.658 104.659 232.329 103.416 233.315 102.441C234.301 101.466 235.557 100.802 236.925 100.533C238.293 100.264 239.71 100.402 240.998 100.93C242.287 101.457 243.388 102.351 244.163 103.498C244.937 104.645 245.351 105.993 245.351 107.372C245.349 109.221 244.605 110.993 243.283 112.3C241.962 113.607 240.17 114.343 238.3 114.345V114.345ZM238.3 101.219C236.65 101.219 235.068 101.867 233.902 103.021C232.735 104.175 232.079 105.74 232.079 107.372C232.079 109.004 232.735 110.569 233.902 111.722C235.068 112.876 236.65 113.525 238.3 113.525C241.731 113.525 245.325 110.67 244.521 107.372C244.014 105.291 240.013 105.661 238.3 101.219Z" fill="#6C63FF"/>
</g>
<defs>
<clipPath id="clip0_306_4">
<rect width="382.04" height="289.079" fill="white"/>
</clipPath>
</defs>
</svg>
